<svg xmlns="http://www.w3.org/2000/svg" width="479" height="344" fill="none" overflow="visible" preserveAspectRatio="none" style="display:block"><g clip-path="url(#a)"><path fill="#D9D9D9" d="M119.6 287.139C53.651 287.139 0 233.452 0 167.468S53.651 47.803 119.6 47.803s119.599 53.68 119.599 119.665c0 65.984-53.651 119.665-119.599 119.665zm0-236.692c-64.489 0-116.957 52.497-116.957 117.021 0 64.523 52.468 117.02 116.957 117.02s116.956-52.497 116.956-117.02c0-64.524-52.461-117.02-116.956-117.02M478.729 164.75q.051.002.112.014a174 174 0 0 0-.165-3.253v1.659c0 .529.033 1.058.053 1.587zM322.983 173.16a93 93 0 0 0 .139-11.544c-.258 3.709-.132 7.696-.139 11.544M241.413 173.16a93 93 0 0 0 .139-11.544c-.258 3.709-.132 7.696-.139 11.544M381.029 323.325l-.304 4.166.376-.179v-3.954a.3.3 0 0 0-.072-.026zM404.56 173.16a93 93 0 0 0 .139-11.544c-.258 3.709-.132 7.696-.139 11.544M404.745 309.183c-.04 1.494-.073 2.982-.112 4.476.092-.066.191-.132.284-.198v-4.106c-.06-.053-.119-.113-.172-.166zM366.392 327.339v6.188c.046-.02.092-.033.138-.053v-5.415c0-.238-.026-.476-.145-.714zM397.575 156.168c-.053.066-.119.318-.152.166-.165-.873-.046-5.475.152-6.083zm0-14.208c-.092-3.551-.304-7.101 0-10.652zm0-52.682c-.251.06-.396-1.118-.304-2.526.198-3.114.027-6.116.013-9.124-.013-1.884.06-2.5.298-2.559v14.209zm0-23.088c-.086-.933-.231-1.825-.244-2.79-.033-2.976 0-5.977-.014-8.966 0-1.831-.039-3.656-.052-5.488-.014-1.66.013-3.173.304-3.47V66.19zM284.815 327.339v15.286c.046 0 .092.013.132.02 0-4.867.007-9.726.013-14.592 0-.238-.026-.476-.145-.714"/><path fill="#D9D9D9" d="M158.766 173.16c.271-3.742.343-7.563.139-11.544-.258 3.709-.133 7.696-.139 11.544M158.528 86.812q-.002-.794-.013-1.587c-.04.073-.086.145-.126.218.02.502.04 1.005.053 1.5l.079-.125zM422.303 42.414c-.007.628-.053 1.448-.02 1.878q.111.097.231.205l-.119-1.99-.086-.086zM436.926 279.992c.139-2.849 0-4.998-.046-7.617-.086.205-.172.397-.337.807.046-1.845.073-3.319.132-4.707.126-2.89.278-5.72.403-8.596.014-.291-.033-.707-.046-1.077-.04-1.197-.119-2.4-.119-3.59.007-3.32.046-6.639.079-9.958.066-7.491-.079-14.969-.013-22.466.027-2.605 0-5.23.013-7.842.02-5.547.152-11.154-.224-16.502.105-.562.211-1.111.343-1.792a74 74 0 0 0-.211-.939c.053-1.567.125-2.605.119-3.623-.02-3.174-.007-6.447-.112-9.475-.212-5.825.244-11.465-.093-17.693-.251-4.635 0-10.691.053-16.106.013-1.362.112-2.691.158-3.716-.052-1.058-.118-1.97-.138-2.922-.04-2.519.086-5.065-.146-7.597-.099-1.045.027-3.16.066-4.774.014-.641.08-1.216.1-1.851.039-1.494.066-3.015.099-4.522.039 0 .079-.007.125-.013l-.39-3.835c.113-.542.205-1.005.298-1.468l-.099-.278c.033-1.21.079-2.406.099-3.63.033-2.32.205-4.767-.119-6.843-.053-.317-.033-1.897-.02-1.91.383-.536.159-2.202.145-3.544-.02-1.435.06-3.095-.02-4.291-.211-3.326-.218-6.685-.152-10.15.014-.852.067-1.751.047-2.545-.139-5.064-.258-10.142-.225-15.326 0-.945.066-1.87.099-2.803a79 79 0 0 1-.086-4.708c.013-1.005.132-1.99.139-2.948a177 177 0 0 0-3.806-4.225c0 6.968-.013 13.937-.013 20.906 0 .602.033 1.64.079 1.726.383.72.158 2.538.132 3.867-.013.867-.106 1.667-.165 2.493q.198.375.396.76c-.026 1.832-.046 3.683-.086 5.501-.039 1.6-.066 3.286-.165 4.715-.291 4.317-.132 8.496-.006 12.806.066 2.387.132 5.204.013 7.319-.132 2.48-.251 5.402-.033 7.895.026-1.574.053-3.022.079-4.476q.08.057.159.125c-.014 2.222-.04 4.45-.04 6.672 0 4.7.007 9.401 0 14.102 0 1.891.033 3.928-.297 4.946-.066.205-.08 1.554-.093 2.393a83 83 0 0 0-.013 3.425c.053 2.354.139 4.668.211 6.995l.06-.053c.026-.952.046-1.904.073-2.856.026.013.059.02.085.033v11.855c-.125.965-.218 1.706-.31 2.446.086.225.165.45.258.701.033 3.842.059 7.815.092 11.948a27 27 0 0 1-.35-.609v7.293c-.007 2.823-.066 5.673-.027 8.463.033 2.393.086 4.694-.006 7.061-.013.258.073.648.073.992.013 2.85.026 5.699.026 8.549 0 .238-.066.483-.066.721q-.001 4.026.006 8.053c0 1.375.027 2.757.02 4.125 0 .84-.053 1.666-.072 2.506-.086 4.192.171 8.675-.225 12.655-.06.569.053 1.931.066 2.936.013 1.626.007 3.259 0 4.892 0 1.475-.04 2.962-.026 4.417.013 1.216.119 2.387.125 3.603.027 4.106.027 8.219.04 12.331.02 6.625.039 13.256.053 19.881a169 169 0 0 0 3.859-4.284c-.053-1.693-.093-3.339-.027-4.734zM475.128 139.454c-.423 3.226-.476 12.86-.232 14.539-.152 3.531-.356 6.691-.409 9.984-.06 3.491.079 6.975.185 10.512.172 5.746.099 11.882.092 17.852 0 1.64-.152 3.259-.231 4.899-.007.152.013.364.026.694.08-.158.152-.317.245-.515 0 3.854-.013 7.471 0 11.081q-.002.684.007 1.369c.138-.609.264-1.21.396-1.819-.073-22.889-.093-45.739-.079-68.596M475.524 141.391c.007 1.646.093 3.273.152 5.032-.04.667-.152 1.745-.158 2.829-.014 7.399-.027 14.804.006 22.189.02 3.359.159 6.678.225 10.03.013.701-.027 1.481-.053 2.209-.053 1.527-.165 3.034-.165 4.555 0 4.688.033 9.375.066 14.056.006 1.124.086 2.222.106 3.353v.013A172.7 172.7 0 0 0 479 172.003c0-2.42-.066-4.833-.165-7.233-.033 0-.073-.007-.113-.013-.019-.529-.046-1.058-.052-1.587v-1.659a173 173 0 0 0-3.159-24.166q-.002 2.024.007 4.04zM422.56 45.356c.047-.086.1-.172.146-.258q.002-.219-.007-.43l-.191-.171c.019.29.033.575.052.866zM421.966 289.665c.039 1.382.086 2.757.125 4.139.053-.06.106-.126.159-.185-.053-3.213-.152-6.433-.139-9.633.02-6.242.132-12.463.159-18.698.046-9.085.066-18.176.072-27.267q.021-22.155 0-44.311c0-1.052-.099-2.103-.145-2.969.079-1.422.192-2.817.218-4.311.04-1.812.026-3.729-.013-5.541-.007-.409-.225-.581-.377-.932-.158-2.678.264-1.864.456-2.849-.132-.609-.225-1.045-.317-1.488.04-.086.086-.172.125-.258l-.118-6.235c-.02-1.038-.047-2.102-.04-3.134.02-2.003.066-4 .106-5.997.013-.641-.02-1.461.026-1.897.363-3.537.139-7.412.139-11.141 0-1.95-.027-3.894-.046-5.845-.014-1.573-.04-3.147-.06-4.542.284-4.859.132-9.455-.139-14.122l.245.985c.033-.152.059-.304.092-.45l-.337-5.481c-.033.112-.072.218-.105.331v-7.617c.482-2.433.489-2.817.204-6.413a19 19 0 0 1 0-2.05c.053-1.078.166-2.036.199-3.127.053-1.752.053-3.57.079-5.415a18 18 0 0 1-.344-.338c-.079-4.872-.152-9.527-.224-14.182q.07.179.132.358c.178-1.27.476-2.374.509-3.835.072-2.757.323-6.288-.258-8.179-.04-.132-.073-.635-.079-1.005-.073-3.035-.159-6.056-.199-9.11-.033-2.804-.006-5.647-.006-8.649.35-.45.416-1.732.205-3.914v-.06a155 155 0 0 0-3.318-2.922v.575c0 2.744-.105 5.56-.052 8.225.284 14.05.165 28.146.125 42.23 0 .825-.112 1.612-.159 2.459-.132 2.525-.251 5.064-.376 7.61 0 .119.026.317.039.496.06 1.104.119 2.208.199 3.649.185.417.343 2.711.172 3.061-.542 1.124-.126 2.182 0 3.339-.47 3.71-.397 8.417-.384 12.754.007 3.26-.324 7.379.37 10.149-.522-.436-.442 1.832-.442 3.69v4.231c.145-.542.211-.82.284-1.091l.105.483c-.085 1.461-.178 2.929-.264 4.39-.033-.093-.073-.185-.106-.278-.039 6.268-.086 12.529-.125 18.791q.07.03.132.059l.119-5.408.119-.337c.079 1.263.225 2.512.231 3.801.046 7.379.093 14.764.093 22.15 0 18.241-.027 36.49-.047 54.731 0 1.19-.052 2.38-.079 3.571-.04-.053-.086-.106-.125-.159-.02-2.804-.014-5.633-.066-8.404-.027-1.342-.159-2.578-.245-3.861-.046.093-.086.185-.132.278v-8.139c-.119.826-.159 1.719-.165 2.625-.014 1.772.013 3.57-.02 5.322-.033 2.037.079 4.688-.377 5.382-.033.046-.033 3.233.013 3.326.351.687.384 2.757.417 4.621.039 2.228.02 4.523.013 6.784-.02 9.223-.046 18.44-.053 27.663 0 .906.119 2.427.218 2.625.449.879.529 3.075.496 5.931a475 475 0 0 0-.033 6.202c0 2.605.013 5.216.013 7.821a164 164 0 0 0 3.192-2.803 50 50 0 0 0-.027-.965c-.112-3.055-.258-6.063-.039-9.277zM418.338 59.545c.125-6.169.172-12.35.198-18.533-.066-.06-.132-.112-.205-.172-.013 5.118-.033 10.242-.046 15.36 0 1.11.033 2.228.046 3.338zM465.685 203.766c-.033-10.704-.113-21.402-.132-32.106-.014-7.835.046-15.67.066-23.505.013-6.704 0-13.409 0-20.113v-22.685a172 172 0 0 0-3.985-8.773c.013 1.706.053 3.444.007 5.071-.067 2.532.211 5.785-.199 7.2.093 1.977.205 3.643.245 5.395.092 4.489.145 9.018.218 13.534.007.49.007.992 0 1.475-.046 3.061-.145 6.122-.145 9.183-.007 7.577.026 15.154.026 22.731 0 .886-.112 1.759-.159 2.678-.026.489-.013 1.065-.019 1.6.449-.159.218 2.314.231 3.484q.099 12.239.139 24.497c.013 4.211.284 8.8-.324 12.317.145.648.244 1.085.383 1.713-.112.985-.211 1.818-.317 2.717.423.701.416 3.551.423 5.508.026 7.193-.04 14.4-.04 21.607 0 3.048 0 6.089.013 9.137a173 173 0 0 0 3.628-8.093c0-1.295-.013-2.591-.013-3.894-.033-10.222-.013-20.456-.04-30.685zM451.292 194.589c-.026-22.572-.086-45.145-.125-67.724 0-1.038.053-2.082.105-3.788.119 1.831.186 2.902.278 4.357.079-.827.152-1.197.152-1.574 0-3.656-.244-7.041-.132-10.942.079-2.975-.046-6.248-.073-9.389-.026-3.768-.033-7.544-.066-11.306-.046-5.315-.099-10.625-.152-15.94a167 167 0 0 0-3.641-5.376c.04 10.652.073 21.303.119 31.948.059 12.886.178 25.759.218 38.645.066 23.168.086 46.342.132 69.516.013 6.797.06 13.587.08 20.377 0 2.321-.106 4.754-.04 6.955.106 3.637-.278 7.491.112 10.936.04.364.046 1.475.013 1.68-.383 2.109-.442 4.833-.383 8.079.033 1.805-.059 3.736-.033 5.56.02 1.336.106 2.625.185 3.901q1.675-2.398 3.271-4.846v-6.294c0-21.588.013-43.181-.013-64.769zM408.016 224.13c-.026-10.109-.093-20.219-.119-30.335-.013-5.289.026-10.578 0-15.868-.026-6.816-.099-13.62-.119-20.436-.02-6.308.02-12.622.02-18.93 0-3.815-.04-7.623-.033-11.438 0-5.276.026-10.559.026-15.835 0-4.509-.033-9.018-.039-13.527 0-2.44.026-4.886.033-7.326.013-5.111.013-10.228.033-15.346 0-1.236.086-2.453.092-3.69.033-8.515.073-17.031.086-25.553.007-4.384 0-8.768-.006-13.151a189 189 0 0 0-3.978-2.81c0 4.159-.001 8.324.013 12.483 0 1.064.072 2.135.066 3.18-.013 1.117-.073 2.215-.119 3.312-.033.787-.106 1.587-.093 2.328 0 .35.166.582.271.932v9.045s-.053.046-.079.072l-.099-4.092a.2.2 0 0 1-.066-.013v5.93h.251c.172 4.37.112 6.896-.172 8.278v4.37c.086-.072.165-.132.264-.204.027 3.742.053 7.517.073 11.299l-.079.126c-.053-1.356-.099-2.705-.146-4.06-.026.026-.059.046-.085.073v8.635c0 1.48-.034 2.949-.04 4.43-.013 1.864-.02 3.735-.013 5.6 0 .211.145.383.138.357-.013 4.006-.092 7.881-.019 11.603.211 10.817.046 21.647.092 32.464.033 7.233.033 14.479.066 21.712.033 7.644.113 15.28.139 22.93.013 5.56-.033 11.134-.046 16.701 0 .688-.027 1.481.006 2.05.311 4.965-.046 10.049.053 15.048.013.8-.066 1.686-.073 2.539-.006 1.924-.231 4.165.225 5.408.205.569.132 6.076-.04 7.24-.079.535-.185 1.474-.171 2.056.178 5.931-.159 12.271.277 17.984.027.37.027.959.013 1.382-.099 2.38-.198 4.74-.323 7.603.204-.145.284-.198.429-.304-.449 3.603-.304 7.18-.178 10.784.039 1.025.02 2.142.046 3.187.046 1.745.112 3.471.165 5.21.027.852.066 1.719.066 2.578.007 2.757 0 5.521.007 8.285.007 1.97.04 3.755-.271 5.031-.099.417-.099 2.36-.106 3.623-.013 2.235 0 4.476 0 6.718l.198-.139c.04-1.494.073-2.982.113-4.476.059.053.119.112.172.165v4.106c1.116-.774 2.227-1.56 3.323-2.367-.026-13.461-.085-26.916-.118-40.378-.04-15.531-.067-31.061-.113-46.592zm-3.449-50.97c.006-3.854-.119-7.834.138-11.544.205 3.987.126 7.802-.138 11.544M422.587 56.02h.092v-8.515h-.092zM422.422 275.787s.066.007.092.013v-6.4s-.066.013-.092.02z"/><path fill="#D9D9D9" d="M422.527 88.088V81.43c-.191 1.85-.33 3.92 0 6.658M461.515 148.208s.053-.013.079-.027v-6.949s-.053.034-.079.053v6.923M418.007 199.078l.159.04v12.304s.06.053.093.086c.039-.449.105-.899.105-1.355.007-4.827.013-9.653 0-14.48 0-.714-.086-1.415-.119-2.142-.066-1.349-.145-2.691-.191-4.079-.04-1.25-.033-2.572-.053-3.862q-.077.06-.146.119v23.419c.053.007.106.02.152.026v-10.076M418.067 153.656c.066-14.804.139-29.607.205-44.411-.047-.013-.099-.026-.146-.04-.026 2.982-.059 5.958-.086 8.939-.026 3.042-.059 6.09-.072 9.131s0 6.09-.013 9.138c-.007 3.048-.014 6.102-.047 9.144-.026 2.77-.092 5.52.013 8.165.047-.02.093-.046.139-.066zM418.384 101.02V62.243l-.099-.06c-.013 12.94-.218 25.872-.079 38.824.059 0 .119.007.185.013zM417.578 246.696c-.027 4.793-.02 9.6 0 14.4 0 .562.106 1.111.165 1.666.04-.595.119-1.183.119-1.778.007-5.667 0-11.34 0-17.006-.02-.066-.046-.132-.066-.198-.079.972-.218 1.924-.225 2.916zM417.855 162.615v21.197c.258-1.521.311-18.367 0-21.197M417.935 234.517v-15.438a142 142 0 0 0-.232 7.55c0 2.678.06 5.362.1 8.047.046-.053.085-.106.132-.159M418.615 188.374v13.065c.285-2.434.311-11.121 0-13.065M474.956 138.442c.059-.932.152-1.858.191-2.796q-.196-.922-.403-1.845c-.013 1.382-.026 2.77-.046 4.152l.258.483zM355.389 315.398c-.026-4.285-.205-8.556.099-12.701.02-.291-.006-.761-.013-1.151-.026-3.788-.33-7.583.013-11.385.04-.41.014-1.164 0-1.746-.053-2.843-.257-6.016-.138-8.423.138-2.849 0-4.998-.047-7.617l-.337.807c.053-1.845.073-3.319.132-4.707.126-2.89.278-5.72.404-8.596.013-.291-.033-.707-.047-1.077-.039-1.197-.119-2.4-.119-3.59.007-3.32.047-6.639.08-9.958.066-7.491-.08-14.969-.014-22.466.02-2.605 0-5.23.014-7.842.019-5.547.152-11.154-.225-16.502.106-.562.211-1.111.344-1.792-.126-.562-.218-.979-.212-.939.053-1.567.126-2.605.119-3.623-.02-3.174-.007-6.447-.119-9.475-.211-5.825.245-11.465-.092-17.693-.251-4.635 0-10.691.053-16.106.013-1.362.112-2.691.158-3.716-.053-1.058-.119-1.97-.139-2.922-.039-2.519.086-5.065-.145-7.597-.093-1.045.026-3.16.066-4.774.013-.641.079-1.216.099-1.851.04-1.494.066-3.015.099-4.522.04 0 .08-.007.126-.013a767 767 0 0 1-.383-3.835c.112-.542.204-1.005.297-1.468l-.099-.278c.033-1.21.079-2.406.099-3.63.033-2.32.205-4.767-.119-6.843-.053-.317-.033-1.897-.02-1.91.383-.536.159-2.202.146-3.544-.02-1.435.059-3.095-.02-4.291-.212-3.326-.218-6.685-.152-10.15.013-.852.066-1.751.046-2.545-.139-5.064-.258-10.142-.225-15.326 0-.945.06-1.87.099-2.803a81 81 0 0 1-.086-4.708c.014-1.05.152-2.069.139-3.067-.02-2.599-.112-5.17-.125-7.763-.007-1.44.105-2.909.112-4.376.007-2.619-.159-5.812-.007-7.73.278-3.45-.237-6.856.126-10.182.119-1.104.066-4.396-.079-5.474-.218-1.62-.192-3.392-.106-4.437.225-2.73.093-5.507.132-8.238.013-.978-.026-2.426.046-2.87.06-.343.1-.7.139-1.064-1.361-.396-2.729-.78-4.097-1.143.013 2.935.073 5.87.113 8.806.033 0 .059.007.092.014.026-1.858.053-3.716.093-6.334.264 3.768.198 8.939-.02 11.015-.106.972-.172 2.327-.192 3.55-.033 2.936.086 6.242-.059 8.76-.218 3.716-.093 6.262.231 9.006-.132.621-.258 1.236-.469 2.221.198.94.33 1.614.475 2.228.205.9.238 4.417.02 4.873-.264.549-.218 1.752-.218 2.956-.006 7.663-.013 15.332-.013 22.995 0 .602.033 1.64.079 1.726.384.72.159 2.539.132 3.868-.019.866-.105 1.666-.165 2.492q.198.376.397.76c-.027 1.832-.046 3.683-.093 5.502-.039 1.6-.066 3.286-.165 4.714-.291 4.317-.132 8.496-.007 12.807.067 2.386.133 5.203.014 7.319-.133 2.479-.251 5.401-.033 7.894.026-1.574.052-3.021.079-4.476.053.04.106.079.158.126-.013 2.221-.039 4.449-.039 6.671 0 4.701.006 9.402 0 14.103 0 1.89.033 3.927-.297 4.945-.067.205-.08 1.554-.093 2.394-.02 1.137-.04 2.32-.013 3.424.053 2.354.139 4.668.211 6.996l.06-.053c.026-.952.046-1.905.072-2.857.027.014.06.02.086.033v11.855c-.125.966-.218 1.706-.31 2.447.086.224.165.449.257.7.033 3.842.06 7.815.093 11.948a27 27 0 0 1-.35-.609v7.293c-.007 2.823-.066 5.673-.027 8.463.033 2.394.086 4.694-.013 7.061-.007.258.073.648.079.992.014 2.85.027 5.699.027 8.549 0 .238-.066.483-.066.721q-.002 4.026.006 8.053c0 1.375.027 2.757.02 4.126 0 .839-.053 1.666-.073 2.505-.085 4.192.172 8.675-.224 12.655-.06.569.053 1.931.059 2.936a307 307 0 0 1 0 4.892c0 1.475-.039 2.962-.026 4.417.013 1.217.119 2.387.125 3.603.027 4.106.033 8.219.04 12.331.02 7.584.053 15.167.06 22.751 0 3.716-.04 7.425-.053 11.141 0 1.421.046 2.902.006 4.271-.079 2.909-.238 5.726-.284 8.641-.053 3.61-.033 7.287-.013 10.93 0 .899.152 1.758.277 3.16v8.225c1.309-.351 2.604-.708 3.899-1.091-.006-2.803-.02-5.607-.02-8.41 0-4.45.08-8.913.053-13.349zM397.469 304.687V291.82c0-.297.014-.773-.006-.859-.35-1.554-.093-2.876.079-4.423-.125-.218-.198-.357-.31-.549.079-1.322.257-2.757.224-3.881-.152-5.204.126-10.38-.02-15.571-.026-.978.08-2.155.126-3.246V157.352c-.225-.185-.264.568-.251 2.102.013 1.759-.033 3.538-.053 5.309-.04 0-.073-.006-.112-.013-.02-.529-.053-1.058-.053-1.587-.02-6.929-.046-13.858-.046-20.787 0-3.914-.02-7.874.052-11.716.053-2.704.1-5.772.463-7.649v-1.184h-.529v-3.511c.02-11.478.047-22.949.053-34.427 0-4.846-.059-9.692-.086-14.539q-.04-5.93-.059-11.861c0-.496.099-.972.125-1.521.02-.49.027-1.117 0-1.593-.033-.688-.138-1.283-.145-1.938-.04-9.07-.059-18.142-.099-27.213a145 145 0 0 0-2.756-1.647c.02 1.997.033 3.994.053 5.99.04 5.892.08 11.783.106 17.68 0 1.369-.053 2.764-.099 4.113-.02.634-.132 1.17-.132 1.778-.027 3.068-.047 6.15-.047 9.23.007 11.095.014 22.189.04 33.283 0 1.369.112 2.724.185 4.404-.264.879-.244 3.041-.225 5.408.02 2.215-.026 4.463-.033 6.698-.013 4.225-.178 8.549.119 12.417-.039 1.223-.112 2.353-.112 3.491-.013 4.436-.02 8.879 0 13.309.007 1.646.092 3.273.152 5.031-.04.668-.159 1.746-.159 2.83-.013 7.399-.026 14.804.007 22.189.02 3.359.159 6.678.225 10.03.013.701-.027 1.481-.053 2.208-.053 1.528-.165 3.035-.165 4.556 0 4.687.033 9.375.066 14.056.006 1.124.086 2.222.105 3.352.027 1.323.073 2.784.027 3.994-.225 5.468-.165 10.929-.093 16.476.033 2.261-.092 4.622-.132 6.949-.02 1.005-.02 2.05 0 3.048.02.813.112 1.574.112 2.367q.021 9.025 0 18.05c0 1.051-.085 2.096-.125 3.147-.337-40.206-.39-80.206-.364-120.214-.422 3.227-.475 12.86-.231 14.539-.152 3.531-.357 6.691-.41 9.984-.059 3.491.08 6.975.186 10.513.165 5.745.099 11.881.092 17.851 0 1.64-.152 3.26-.231 4.9-.007.152.013.363.026.694.079-.159.152-.318.245-.516 0 3.855-.014 7.471 0 11.081.033 8.318.092 16.635.105 24.953.014 8.853-.026 17.713-.019 26.572.006 4.833.052 9.673.119 14.48.059 4.059-.166 8.324.178 12.218.046.503-.046 1.633-.079 2.46-.027.635-.113 1.269-.099 1.851.112 7.366-.298 14.48-.08 22.096.073 2.5.113 5.045.132 7.61q1.952-1.138 3.873-2.327c.026-.8.105-1.6.152-2.4-.013-3.775-.033-7.557-.04-11.332zM340.032 307.894c.007-2.434-.099-5.363.225-7.379l.125 3.478c.053-.1.113-.205.165-.305-.039-1.586-.059-3.2-.112-4.747-.112-3.054-.258-6.063-.039-9.276.039 1.382.085 2.757.125 4.139.053-.06.106-.126.159-.185-.053-3.213-.152-6.433-.139-9.633.02-6.242.132-12.463.159-18.698.046-9.085.066-18.176.072-27.267q.02-22.155 0-44.311c0-1.052-.099-2.103-.145-2.969.072-1.422.191-2.817.218-4.311.04-1.812.026-3.729-.013-5.541-.007-.409-.225-.581-.377-.932-.159-2.678.264-1.864.456-2.849-.132-.609-.225-1.045-.317-1.488.039-.086.086-.172.125-.258l-.119-6.235c-.019-1.038-.046-2.102-.039-3.134.02-2.003.066-4 .105-5.997.014-.641-.019-1.461.027-1.897.363-3.537.139-7.412.139-11.141 0-1.95-.027-3.894-.047-5.845-.019-1.573-.039-3.147-.059-4.542.284-4.859.132-9.455-.139-14.122.079.33.165.654.245.985.033-.152.059-.304.092-.45l-.337-5.481c-.033.112-.073.218-.106.331v-7.617c.483-2.433.489-2.817.205-6.413a19 19 0 0 1 0-2.05c.053-1.078.165-2.036.199-3.127.052-1.752.052-3.57.079-5.415-.113-.106-.238-.232-.344-.338-.079-4.872-.152-9.527-.224-14.182q.07.179.132.358c.178-1.27.469-2.374.509-3.835.072-2.757.323-6.288-.258-8.179-.04-.132-.073-.635-.079-1.005-.073-3.035-.159-6.056-.199-9.11-.033-2.804-.006-5.647-.006-8.649.35-.45.423-1.732.205-3.914-.04-.41.006-1.283.019-1.944l.086.086q.091 1.428.172 2.856c.046-.086.099-.172.145-.258-.026-1.527-.052-3.054-.072-4.013.046-1.56.105-2.783.112-4.007.007-1.653-.04-3.074-.238-4.443-.178-1.21-.218-3.127-.132-5.355.079-2.017-.106-4.49-.106-6.757 0-5.76.02-11.518.033-17.277a187 187 0 0 0-3.839-.72l-.079 19.445q-.058 17.118-.106 34.235c0 1.11.033 2.228.046 3.339.331-16.318.119-32.721.456-48.953.08.674.119 1.375.126 2.076.02 9.759.039 19.524.046 29.283 0 2.744-.106 5.56-.053 8.225.284 14.05.165 28.146.126 42.23 0 .825-.113 1.612-.159 2.459-.132 2.525-.251 5.064-.377 7.61 0 .119.027.317.04.496l.198 3.649c.185.417.344 2.711.172 3.061-.542 1.124-.125 2.182 0 3.339-.469 3.71-.396 8.417-.383 12.754.007 3.26-.324 7.379.37 10.149-.522-.436-.443 1.832-.443 3.69v4.231c.146-.542.212-.82.284-1.091.033.159.066.324.106.483-.086 1.461-.178 2.929-.264 4.39-.033-.093-.073-.185-.106-.278-.04 6.268-.086 12.529-.126 18.791q.072.03.133.059l.119-5.408.119-.337c.079 1.263.224 2.512.231 3.801.046 7.379.092 14.764.092 22.15 0 18.241-.026 36.49-.053 54.731 0 1.19-.052 2.38-.079 3.571-.039-.053-.086-.106-.125-.159-.02-2.804-.014-5.633-.066-8.404-.027-1.342-.159-2.578-.245-3.861-.046.093-.086.185-.132.278v-8.139c-.119.826-.159 1.719-.165 2.625-.014 1.772.013 3.57-.02 5.322-.033 2.037.079 4.688-.377 5.382-.033.046-.033 3.233.013 3.326.351.687.384 2.757.417 4.621.039 2.228.02 4.523.013 6.784-.02 9.223-.046 18.44-.053 27.663 0 .906.119 2.427.218 2.625.449.879.529 3.075.496 5.931a475 475 0 0 0-.033 6.202c.02 12.595.059 25.19.066 37.792 0 2.903-.013 5.812-.027 8.714.912-.165 1.824-.344 2.729-.515.007-3.822.02-7.65.02-11.472 0-7.173-.039-14.347-.013-21.508zM380.724 327.51v-.019h-.006s0 .012.006.019"/><path fill="#D9D9D9" d="M384.148 234.451c-.033-10.222-.014-20.457-.04-30.685-.026-10.704-.112-21.402-.132-32.106-.013-7.835.046-15.67.066-23.505.013-6.704 0-13.409 0-20.113 0-13.56-.007-27.121 0-40.675 0-3.703.073-7.398.079-11.101 0-8.45-.02-16.9-.026-25.35V33.64c0-4.806 0-9.62.013-14.426v-1.052a162 162 0 0 0-4.302-2.082c0 3.08.027 6.182.027 9.263 0 2.254.039 4.529.019 6.763-.026 2.546-.092 4.992.291 6.605.066.285.126 1.131.126 1.726.013 2.89 0 5.779 0 8.668-.033.02-.06.033-.093.053-.04-.8-.086-1.6-.158-2.995-.06 1.223-.119 1.838-.113 2.433.027 4.384.08 8.76.106 13.15.026 5.29.026 10.586.066 15.875.007 1.23.132 2.42.192 3.465-.06.555-.179 1.183-.192 1.91-.059 3.478.086 6.943-.02 10.52-.079 2.598.06 5.52 0 8.152-.066 2.532.212 5.785-.198 7.2.092 1.977.205 3.643.244 5.395.093 4.49.146 9.019.219 13.535.006.489.006.991 0 1.474-.047 3.061-.146 6.122-.146 9.184-.013 7.577.027 15.154.027 22.731 0 .886-.113 1.758-.159 2.677-.026.49-.013 1.065-.02 1.6.45-.158.218 2.314.231 3.485q.1 12.238.139 24.496c.013 4.212.284 8.8-.324 12.318.146.648.245 1.084.384 1.712-.113.985-.212 1.818-.318 2.717.423.701.41 3.551.423 5.508.027 7.194-.039 14.4-.039 21.607 0 7.67.026 15.346.053 23.015 0 .503.099.986.152 1.475.039-.093.086-.185.125-.278l-.191 5.772c.006.053.046.298.072.443-.059 1.303-.119 2.479-.191 3.987.158-.265.231-.384.383-.648-.079 1.633-.086 3.299-.198 3.835-.298 1.421-.212 3.312-.166 4.985.04 1.342.258 2.486.271 3.782.04 3.762.014 7.55.014 11.332l-.139-.317c-.053 1.045-.152 2.076-.159 3.127 0 2.645.033 5.296.053 7.948.04 5.368.086 10.744.126 16.119 0 .33-.02.668-.027 1.005-.039 1.441-.086 2.889-.125 4.331.046.092.092.191.138.284h.007l.304-4.166c.026.007.046.02.073.027v3.954c1.116-.536 2.22-1.085 3.324-1.64-.007-17.918-.073-35.829-.126-53.74-.04-12.496-.119-24.985-.152-37.482zM369.868 325.573c-.219-1.659-.152-2.896-.152-4.271-.007-2.936.052-5.878.052-8.813 0-2.414-.039-4.827-.052-7.247-.047-6.459.35-12.906.013-19.385-.02-.351-.007-.78-.007-1.177 0-8.443.013-16.886.013-25.323 0-21.587.014-43.181-.013-64.768-.026-22.572-.086-45.145-.125-67.724 0-1.038.052-2.082.105-3.788.119 1.831.185 2.902.278 4.357.079-.827.152-1.197.152-1.574 0-3.656-.245-7.041-.132-10.942.079-2.975-.047-6.248-.073-9.389-.026-3.768-.04-7.544-.066-11.306-.046-5.6-.106-11.193-.165-16.793 0-.675 0-1.799-.046-1.944-.338-1.045-.219-3.147-.219-4.827-.039-19.696-.066-39.392-.105-59.089-1.137-.443-2.28-.879-3.43-1.295q.048 6.942.086 13.884c.033 6.48.059 12.966.093 19.452.006 1.739.066 3.49.052 5.21-.019 2.268-.138 4.516-.138 6.77 0 5.111.052 10.215.072 15.326.047 11.313.073 22.632.126 33.945.066 12.886.178 25.759.218 38.645.066 23.167.086 46.341.132 69.515.013 6.797.06 13.587.079 20.378 0 2.32-.105 4.753-.039 6.955.105 3.636-.278 7.491.112 10.936.04.363.046 1.474.013 1.679-.383 2.109-.442 4.833-.383 8.08.033 1.805-.059 3.735-.033 5.56.026 1.547.139 3.041.225 4.522.059 1.025.205 1.977.205 2.969.013 10.645.019 21.296-.02 31.935a99 99 0 0 1-.351 7.57c-.185 2.235-.085 2.678.185 2.909v5.852s-.026.006-.033.013c-.033-1.448-.066-2.896-.112-4.807-.125 1.415-.205 8.529-.211 16.053q.118-.04.238-.092v-6.189c.118.238.145.476.145.714v5.415c1.156-.43 2.313-.866 3.463-1.316.019-2.486.039-5.269-.133-6.578zM326.552 270.723c-.04-15.531-.067-31.062-.113-46.593-.026-10.109-.092-20.219-.119-30.335-.013-5.289.027-10.578 0-15.868-.026-6.816-.099-13.62-.119-20.436-.019-6.308.02-12.622.02-18.93 0-3.815-.039-7.623-.039-11.438 0-5.276.026-10.559.026-15.835 0-4.509-.033-9.018-.04-13.527 0-2.44.027-4.886.033-7.326.014-5.111.014-10.228.033-15.346 0-1.236.086-2.453.093-3.69.033-8.515.073-17.031.086-25.553.013-5.931 0-11.862-.013-17.793-.014-6.902-.053-13.805-.066-20.707 0-2.11.006-4.225.013-6.334a165 165 0 0 0-4.058-.404c.047 6.645.093 13.283.126 19.935.033 7.272.02 14.552.033 21.831 0 1.065.073 2.136.059 3.18-.013 1.118-.072 2.215-.119 3.313-.033.787-.105 1.587-.092 2.327 0 .35.159.582.271.933v9.044s-.053.047-.079.073l-.1-4.093a.2.2 0 0 1-.066-.013v5.931h.252c.171 4.37.112 6.896-.172 8.278v4.37c.086-.073.165-.132.264-.205.026 3.742.053 7.518.073 11.3-.027.04-.053.085-.08.125a917 917 0 0 1-.145-4.06c-.026.027-.059.047-.086.073v8.635c0 1.481-.033 2.95-.04 4.43-.013 1.865-.019 3.736-.013 5.6 0 .212.146.384.139.357-.013 4.007-.092 7.881-.02 11.604.212 10.816.046 21.646.099 32.463.033 7.233.033 14.48.066 21.713.033 7.643.113 15.28.139 22.929.02 5.561-.033 11.134-.046 16.702 0 .687-.033 1.481.007 2.049.31 4.966-.047 10.05.052 15.048.02.8-.066 1.686-.072 2.539-.007 1.924-.232 4.166.224 5.409.205.568.133 6.076-.046 7.239-.079.536-.185 1.475-.172 2.057.179 5.93-.158 12.271.278 17.983.026.371.026.959.013 1.382-.099 2.381-.205 4.741-.324 7.604.205-.146.284-.199.43-.304-.45 3.603-.304 7.18-.179 10.783.04 1.025.02 2.143.047 3.187.046 1.746.112 3.471.165 5.21.026.853.066 1.719.066 2.579.007 2.757 0 5.52.007 8.284.006 1.97.039 3.756-.271 5.032-.1.416-.1 2.36-.106 3.623-.013 2.916 0 5.838 0 8.76.046.027.099.053.145.08.053-2.248.113-4.49.165-6.738.06.053.119.113.172.166.007 11.306.02 22.618.027 33.924q1.673-.16 3.337-.35c-.007-8.41-.013-16.82-.027-25.23-.019-15.657-.092-31.313-.138-46.97zm-3.562-97.563c.006-3.854-.119-7.834.139-11.544.204 3.987.125 7.802-.139 11.544M397.377 36.543c.007.165.126.04.192.053V25.7c-.172-.106-.337-.212-.509-.318 0 1.468 0 2.936.02 4.39.026 2.301.185 4.536.29 6.77zM397.265 48.946c.013 1.832.046 3.657.053 5.488.006 2.989-.02 5.997.013 8.966.013.971.158 1.864.244 2.79V45.475c-.291.298-.317 1.812-.304 3.471zM397.278 77.635c.02 3.008.185 6.01-.013 9.124-.086 1.408.059 2.578.304 2.525V75.076c-.232.06-.304.68-.298 2.559zM397.423 156.334c.027.152.099-.1.152-.166v-5.917c-.191.608-.31 5.216-.152 6.083M397.575 141.96v-10.652c-.304 3.551-.092 7.101 0 10.652M341.01 56.02h.093v-8.515h-.093zM340.845 275.787s.066.007.092.013v-6.4s-.066.013-.092.02zM340.951 88.088V81.43c-.192 1.85-.331 3.92 0 6.658M351.292 294.221l-.092.026v5.527s.066.047.092.073v-5.626"/><path fill="#D9D9D9" d="M379.938 148.208s.053-.013.08-.027v-6.949l-.08.053v6.923M366.273 305.791l.158.04V287.53c-.284 5.976-.092 12.165-.158 18.261M366.63 273.129c-.351 1.885-.443 6.143-.331 12.999.509-4.265.027-8.681.331-12.999M336.431 199.078l.158.04v12.304s.06.053.093.086c.033-.449.106-.899.106-1.355.006-4.827.013-9.653 0-14.48 0-.714-.086-1.415-.119-2.142-.067-1.349-.146-2.691-.192-4.079-.04-1.25-.033-2.572-.053-3.862-.046.04-.099.08-.145.119v23.419c.053.007.105.02.152.026v-10.076M336.49 153.656c.066-14.804.139-29.607.205-44.411-.046-.013-.099-.026-.145-.04-.027 2.982-.06 5.958-.086 8.939-.027 3.042-.06 6.09-.073 9.131s0 6.09-.013 9.138c-.007 3.048-.013 6.102-.046 9.144-.027 2.77-.093 5.52.013 8.165.046-.02.092-.046.139-.066zM336.807 101.02V62.243l-.099-.06c-.013 12.94-.218 25.872-.079 38.824.059 0 .119.007.185.013zM336.001 246.696c-.026 4.793-.02 9.6 0 14.4 0 .562.106 1.111.165 1.666.04-.595.119-1.183.119-1.778.007-5.667 0-11.34 0-17.006l-.066-.198c-.079.972-.218 1.924-.225 2.916zM336.279 162.615v21.197c.257-1.521.31-18.367 0-21.197M336.358 234.517v-15.438a141 141 0 0 0-.231 7.55c0 2.678.059 5.362.099 8.047.046-.053.086-.106.132-.159M337.039 188.374v13.065c.284-2.434.31-11.121 0-13.065M393.584 135.024c.013-3.207-.053-6.426-.046-9.64.026-7.028.105-14.043.112-21.071.007-9.224-.026-18.454-.046-27.677 0-.641-.02-1.276-.033-1.917q-.029-.04-.066-.08c-.08 1.488-.166 2.97-.265 4.708.185.932.278 1.984 0 3.418-.079.41-.059 1.964-.053 2.989.014 4.535.053 9.071.06 13.6q-.002 12.765-.013 25.521v1.627l-.119 11.458c.086.158.172.324.257.482.073-1.137.205-2.267.205-3.425zM393.333 41.773c.231-4.966.429-9.482.264-15.174-.165 1.15-.37 1.904-.376 2.737-.027 3.795 0 7.61 0 11.419 0 .145.033.284.112 1.018M393.207 56.398l.205 9.898c.192.667.331.112.264-2.024-.085-2.724-.211-5.382-.323-8.073-.047.067-.099.133-.146.199M393.366 49.184l.291-2.4c-.516.51-.595 2.348-.291 5.72zM323.003 343.306c.04 0 .073 0 .112-.007-.026-.139-.059-.271-.079-.41-.007.139-.02.285-.033.423zM323.036 337.587c.278-3.015.205-7.24-.159-9.567.06 3.405.1 6.096.159 9.567M273.812 315.398c-.026-4.285-.204-8.556.1-12.701.019-.291-.014-.761-.014-1.151-.026-3.788-.33-7.583.014-11.385.039-.41.013-1.164 0-1.746-.053-2.843-.258-6.016-.139-8.423.139-2.849 0-4.998-.046-7.617-.086.205-.172.397-.337.807.052-1.845.072-3.319.132-4.707.125-2.89.277-5.72.403-8.596.013-.291-.033-.707-.046-1.077-.04-1.197-.119-2.4-.119-3.59.006-3.32.046-6.639.079-9.958.066-7.491-.079-14.969-.013-22.466.026-2.605 0-5.23.013-7.842.02-5.547.152-11.154-.225-16.502.106-.562.212-1.111.344-1.792-.126-.562-.218-.979-.212-.939.053-1.567.126-2.605.119-3.623-.019-3.174-.006-6.447-.112-9.475-.211-5.825.245-11.465-.093-17.693-.251-4.635 0-10.691.053-16.106.014-1.362.113-2.691.159-3.716-.053-1.058-.119-1.97-.139-2.922-.039-2.519.086-5.065-.145-7.597-.099-1.045.026-3.16.066-4.774.013-.641.079-1.216.099-1.851.04-1.494.066-3.015.099-4.522.04 0 .079-.007.126-.013l-.39-3.835a190 190 0 0 0 .297-1.468l-.099-.278c.033-1.21.079-2.406.099-3.63.033-2.32.212-4.767-.119-6.843-.053-.317-.033-1.897-.02-1.91.384-.536.159-2.202.146-3.544-.02-1.435.059-3.095-.02-4.291-.211-3.326-.218-6.685-.152-10.15.013-.852.066-1.751.046-2.545-.139-5.064-.257-10.142-.224-15.326 0-.945.059-1.87.099-2.803a79 79 0 0 1-.086-4.708c.013-1.05.145-2.069.139-3.067-.02-2.599-.113-5.17-.126-7.763-.007-1.44.106-2.909.112-4.376.007-2.619-.165-5.812-.006-7.73.277-3.45-.238-6.856.125-10.182.119-1.104.066-4.396-.079-5.474-.218-1.62-.192-3.392-.106-4.437.225-2.73.093-5.507.132-8.238.014-.978-.026-2.426.047-2.87.238-1.414.264-3.1.251-4.82-1.414.279-2.815.57-4.216.874v1.157c.006 3.127.073 6.254.119 9.382.033 0 .059.006.092.013.027-1.858.053-3.716.093-6.334.264 3.769.198 8.939-.02 11.015a40 40 0 0 0-.192 3.55c-.033 2.936.086 6.242-.059 8.761-.218 3.716-.093 6.261.231 9.005-.132.622-.258 1.236-.469 2.222.198.939.33 1.613.476 2.228.205.899.238 4.416.02 4.873-.265.548-.212 1.752-.219 2.955-.006 7.663-.013 15.333-.013 22.996 0 .601.033 1.64.08 1.725.383.72.158 2.54.132 3.868-.013.866-.106 1.666-.165 2.493q.198.374.396.76c-.026 1.831-.046 3.683-.092 5.5-.04 1.601-.067 3.287-.166 4.715-.29 4.317-.132 8.496-.006 12.807.066 2.387.132 5.203.013 7.319-.132 2.479-.251 5.402-.033 7.894.026-1.573.053-3.021.079-4.476q.08.059.159.126c-.013 2.221-.04 4.45-.04 6.671 0 4.701.007 9.402 0 14.103 0 1.891.033 3.927-.297 4.945-.066.205-.08 1.554-.093 2.394a85 85 0 0 0-.013 3.425c.053 2.354.139 4.668.211 6.995.02-.02.04-.033.06-.053.026-.952.053-1.904.073-2.856.026.013.059.02.086.033v11.855a368 368 0 0 0-.311 2.446c.086.225.165.45.258.701.033 3.841.059 7.815.092 11.947a32 32 0 0 1-.35-.608v7.293c-.007 2.823-.066 5.672-.026 8.463.033 2.393.085 4.694-.014 7.061-.006.258.073.648.08.992.013 2.849.026 5.699.026 8.549 0 .238-.066.482-.066.72q-.002 4.027.007 8.053c0 1.375.026 2.757.019 4.126 0 .84-.059 1.666-.072 2.506-.086 4.192.172 8.674-.225 12.655-.059.568.053 1.93.06 2.935q.02 2.442 0 4.893c0 1.474-.04 2.962-.027 4.416.013 1.217.119 2.387.126 3.604.026 4.106.033 8.218.039 12.331.02 7.583.053 15.167.06 22.75 0 3.716-.04 7.425-.053 11.141 0 1.422.046 2.903.006 4.271-.079 2.909-.237 5.726-.284 8.642-.053 3.61-.033 7.286-.013 10.929 0 .899.146 1.759.278 3.16v9.991q1.943.426 3.905.813-.021-6.04-.033-12.08c0-4.449.079-8.912.053-13.349zM315.873 338.175s-.053 0-.073-.006v-7.663c-.006-3.829-.039-7.663-.026-11.492 0-1.005.106-1.996.165-2.988-.013-3.775-.033-7.557-.04-11.332v-12.867c0-.297.014-.773-.006-.859-.35-1.554-.093-2.876.079-4.424-.126-.218-.198-.357-.311-.548.08-1.323.258-2.757.225-3.881-.152-5.204.126-10.381-.02-15.571-.026-.979.08-2.155.126-3.246V157.352c-.225-.185-.264.568-.251 2.102.013 1.759-.033 3.538-.053 5.31a1 1 0 0 1-.112-.014c-.02-.529-.053-1.058-.053-1.587-.02-6.929-.047-13.858-.053-20.787 0-3.914-.027-7.874.053-11.716.053-2.704.099-5.772.462-7.649v-1.184h-.528v-3.511c.019-11.478.046-22.949.052-34.427 0-4.846-.059-9.692-.085-14.539a3350 3350 0 0 1-.06-11.861c0-.496.099-.972.126-1.521.019-.49.026-1.117 0-1.593-.033-.688-.139-1.283-.146-1.938-.046-9.944-.066-19.888-.112-29.832-.033-7.497-.093-14.995-.126-22.493-.892-.04-1.777-.072-2.676-.099v.159c-.013 4.833.377 9.693-.026 14.513-.02.257.013.747.019 1.13.04 4.582.086 9.164.113 13.753.039 5.89.079 11.782.106 17.68 0 1.368-.053 2.763-.1 4.112-.019.634-.132 1.17-.132 1.778-.026 3.068-.046 6.15-.046 9.23q0 16.642.04 33.283c0 1.37.112 2.725.185 4.404-.265.879-.245 3.041-.225 5.408.02 2.215-.026 4.463-.033 6.698-.013 4.225-.178 8.549.119 12.417-.04 1.223-.112 2.353-.112 3.491-.014 4.436-.02 8.879 0 13.309.006 1.646.092 3.273.152 5.031-.04.668-.159 1.746-.159 2.83-.013 7.399-.026 14.804.007 22.189.019 3.359.158 6.678.224 10.03.013.701-.026 1.481-.053 2.208-.052 1.528-.165 3.035-.165 4.556 0 4.688.033 9.375.066 14.056.007 1.124.086 2.222.106 3.352.026 1.323.073 2.784.026 3.994-.224 5.468-.165 10.929-.092 16.476.033 2.261-.093 4.622-.132 6.949-.02 1.005-.02 2.05 0 3.048.02.813.112 1.574.112 2.367q.02 9.025 0 18.05c0 1.051-.086 2.096-.125 3.147-.337-40.205-.39-80.206-.364-120.214-.423 3.227-.476 12.86-.231 14.539-.152 3.531-.357 6.691-.41 9.984-.059 3.491.079 6.975.185 10.513.172 5.745.099 11.881.093 17.851 0 1.64-.152 3.26-.232 4.9-.006.152.014.363.027.694.079-.159.152-.318.244-.516 0 3.855-.013 7.471 0 11.081.033 8.318.093 16.635.106 24.953.013 8.853-.026 17.713-.02 26.572 0 4.833.053 9.673.119 14.48.06 4.059-.165 8.324.179 12.218.046.503-.047 1.633-.08 2.46-.026.635-.105 1.269-.099 1.851.112 7.366-.297 14.48-.079 22.096.211 7.577.145 15.571.198 23.379 0 .549-.02 1.581-.04 1.6-.396.338-.31 2.632-.304 4.245v1.627c1.461-.04 2.915-.093 4.362-.172v-16.589l-.119 10.942zM258.455 307.894c.007-2.434-.099-5.363.225-7.379l.126 3.478c.052-.1.112-.205.165-.304-.04-1.587-.06-3.201-.113-4.748-.112-3.054-.257-6.063-.039-9.276.039 1.382.086 2.757.125 4.139.053-.059.106-.126.159-.185-.053-3.213-.152-6.433-.139-9.633.02-6.242.132-12.463.165-18.698.047-9.085.066-18.176.073-27.267q.02-22.155 0-44.311c0-1.052-.099-2.103-.145-2.969.072-1.422.191-2.817.218-4.311.039-1.812.026-3.729-.014-5.541-.006-.409-.224-.581-.376-.932-.159-2.678.264-1.864.456-2.849-.132-.609-.225-1.045-.317-1.488.046-.086.085-.172.132-.258l-.119-6.235c-.02-1.038-.046-2.102-.04-3.134.02-2.003.066-4 .106-5.997.013-.641-.02-1.461.026-1.897.364-3.537.139-7.412.139-11.141 0-1.95-.026-3.894-.046-5.845-.02-1.573-.04-3.147-.06-4.542.284-4.859.133-9.454-.138-14.122.079.33.165.654.244.985.033-.152.06-.304.093-.45l-.337-5.481c-.033.113-.073.218-.106.331v-7.617c.482-2.433.489-2.817.205-6.413-.04-.523-.027-1.422 0-2.05.053-1.078.165-2.036.198-3.127.053-1.752.053-3.57.079-5.415a16 16 0 0 1-.343-.338c-.08-4.872-.152-9.527-.225-14.182l.139.358c.178-1.27.469-2.374.509-3.835.072-2.757.33-6.288-.258-8.179-.04-.132-.073-.635-.079-1.005-.073-3.035-.159-6.056-.199-9.11-.033-2.804-.006-5.647-.006-8.649.35-.45.423-1.732.205-3.914-.04-.41.006-1.283.019-1.944l.086.086q.091 1.428.172 2.856c.046-.086.099-.172.145-.258-.026-1.527-.052-3.054-.072-4.013.046-1.56.105-2.783.112-4.007.007-1.653-.04-3.074-.238-4.443-.178-1.21-.218-3.127-.132-5.355.079-2.017-.106-4.49-.106-6.757 0-4.609.014-9.217.027-13.819-1.289.37-2.577.76-3.853 1.164l-.059 14.103q-.058 17.118-.106 34.235c0 1.11.033 2.228.046 3.339.331-16.318.119-32.721.456-48.953.08.674.119 1.375.126 2.076.02 9.759.039 19.524.046 29.283 0 2.744-.106 5.56-.053 8.225.284 14.05.165 28.146.126 42.23 0 .826-.113 1.612-.159 2.459-.132 2.525-.251 5.064-.377 7.61 0 .119.027.317.04.496l.198 3.649c.185.417.344 2.711.172 3.061-.542 1.124-.125 2.182 0 3.339-.469 3.71-.396 8.417-.383 12.754.007 3.26-.324 7.379.37 10.149-.522-.436-.443 1.832-.443 3.69v4.231c.146-.542.212-.82.284-1.091.033.159.066.324.106.483-.086 1.461-.178 2.929-.264 4.39-.033-.093-.073-.185-.106-.278-.04 6.268-.086 12.529-.125 18.791q.07.03.132.059c.039-1.805.079-3.603.112-5.408l.119-.337c.079 1.263.225 2.512.231 3.801.046 7.379.093 14.764.093 22.15 0 18.241-.027 36.49-.047 54.731 0 1.19-.052 2.38-.079 3.571-.039-.053-.086-.106-.125-.159-.02-2.803-.014-5.633-.066-8.404-.027-1.342-.159-2.578-.245-3.861-.046.093-.086.185-.132.278v-8.139c-.119.826-.159 1.719-.165 2.625-.014 1.772.013 3.57-.02 5.322-.033 2.037.079 4.688-.377 5.382-.033.046-.033 3.233.013 3.326.351.687.384 2.757.417 4.621.039 2.228.02 4.523.013 6.784-.02 9.223-.046 18.44-.053 27.663 0 .906.119 2.427.218 2.625.449.879.529 3.075.496 5.931a475 475 0 0 0-.033 6.202c.02 12.595.059 25.19.066 37.792 0 1.197-.007 2.387-.013 3.584.905.284 1.81.548 2.722.813 0-2.559.013-5.118.013-7.676 0-7.174-.039-14.348-.013-21.508zM302.729 271.933c-.039-12.497-.119-24.986-.152-37.482-.033-10.222-.013-20.457-.039-30.685-.033-10.704-.113-21.402-.132-32.106-.014-7.835.046-15.67.066-23.505.013-6.704 0-13.409 0-20.113 0-13.56-.007-27.121 0-40.675 0-3.703.072-7.398.079-11.101 0-8.45-.02-16.9-.026-25.35V33.64c0-4.806 0-9.62.013-14.426.02-4.629.059-9.25.086-13.806-.152-.45-.278-.82-.357-1.07-.066-1.548-.013-2.963.066-4.338-1.401.04-2.802.093-4.19.159v.277c-.079 3.055.199 5.58.146 8.754-.086 5.31-.02 10.758-.013 16.146 0 2.255.039 4.529.019 6.764-.026 2.545-.092 4.992.291 6.605.066.284.126 1.13.126 1.726.013 2.889 0 5.778 0 8.668-.033.02-.06.033-.093.052-.039-.8-.086-1.6-.158-2.995-.06 1.223-.119 1.838-.113 2.433.027 4.384.08 8.76.106 13.151.026 5.29.026 10.585.066 15.875.007 1.23.132 2.42.192 3.464-.06.556-.179 1.184-.192 1.911-.059 3.478.086 6.942-.02 10.52-.079 2.598.06 5.52 0 8.151-.066 2.533.212 5.786-.198 7.201.093 1.976.205 3.643.245 5.395.092 4.489.145 9.018.218 13.534.006.489.006.992 0 1.474-.047 3.062-.146 6.123-.146 9.184-.013 7.577.027 15.154.027 22.731 0 .886-.113 1.759-.159 2.678-.026.489-.013 1.064-.02 1.6.45-.159.218 2.314.231 3.484q.1 12.238.139 24.496c.013 4.212.284 8.801-.324 12.318.146.648.245 1.084.384 1.712-.113.986-.212 1.819-.317 2.718.422.701.409 3.55.422 5.507.027 7.194-.039 14.401-.039 21.607 0 7.67.026 15.346.053 23.016 0 .502.099.985.152 1.474.039-.092.086-.185.125-.278l-.191 5.772c.006.053.046.298.072.443-.059 1.303-.119 2.48-.191 3.987.158-.264.224-.383.383-.648-.079 1.633-.086 3.3-.198 3.835-.298 1.422-.212 3.313-.166 4.985.04 1.343.258 2.486.271 3.782.04 3.762.014 7.551.014 11.333l-.139-.318c-.053 1.045-.152 2.076-.159 3.128 0 2.644.033 5.296.053 7.947.04 5.369.086 10.744.126 16.119 0 .331-.02.668-.027 1.005-.039 1.442-.086 2.89-.125 4.331.046.099.099.198.145.304.099-1.395.205-2.79.304-4.185.026.006.046.02.073.026 0 6.843.013 13.687.02 20.523 1.096.046 2.2.093 3.304.119 0-5.686.006-11.379 0-17.065 0-18.334-.073-36.668-.133-55.002M288.383 338.499c-.31-1.752.007-3.253.02-4.866.02-2.751.086-6.48-.119-8.06-.218-1.659-.152-2.896-.152-4.271-.006-2.936.053-5.878.053-8.813 0-2.414-.04-4.827-.053-7.247-.046-6.459.35-12.906.013-19.385-.019-.351-.006-.78-.006-1.177 0-8.443.013-16.886.013-25.323 0-21.587.013-43.181-.013-64.768-.027-22.572-.086-45.145-.126-67.724 0-1.038.053-2.082.106-3.788.119 1.831.185 2.902.277 4.357.08-.827.152-1.197.152-1.574 0-3.656-.244-7.041-.132-10.942.08-2.975-.046-6.248-.072-9.389-.027-3.768-.04-7.544-.066-11.306-.047-5.6-.106-11.193-.166-16.793-.006-.675 0-1.799-.046-1.944-.337-1.045-.218-3.147-.218-4.827-.04-20.238-.066-40.483-.106-60.722 0-2.975-.013-5.944-.026-8.919-1.15.132-2.306.265-3.45.417.033 7.577.093 15.147.133 22.724.033 6.48.059 12.966.092 19.452.007 1.739.066 3.49.053 5.21-.02 2.268-.139 4.516-.139 6.77 0 5.111.053 10.215.073 15.326.046 11.313.073 22.632.125 33.945.06 12.886.179 25.759.218 38.645.067 23.167.086 46.341.133 69.515.013 6.797.059 13.587.079 20.378 0 2.32-.106 4.753-.04 6.955.106 3.636-.277 7.491.113 10.936.039.363.046 1.474.013 1.679-.383 2.109-.443 4.833-.383 8.08.033 1.805-.06 3.735-.033 5.56.026 1.547.138 3.041.224 4.522.06 1.025.205 1.977.205 2.969.013 10.645.02 21.296-.02 31.935a99 99 0 0 1-.35 7.57c-.185 2.235-.086 2.678.185 2.909v5.852s-.026.006-.033.013c-.033-1.448-.066-2.896-.112-4.807-.179 1.984-.251 15.22-.192 25.032q.109.012.218.033v-15.286c.119.238.145.476.145.714 0 4.866-.006 9.726-.013 14.592 1.071.139 2.141.258 3.218.37.027-1.362.08-2.717.172-4.073.013-.165.046-.443.046-.443zM244.975 270.723c-.04-15.531-.066-31.062-.113-46.593-.033-10.109-.092-20.219-.118-30.335-.014-5.289.026-10.578 0-15.868-.027-6.816-.1-13.62-.119-20.436-.02-6.308.019-12.622.019-18.93 0-3.815-.039-7.623-.039-11.438 0-5.276.026-10.559.026-15.835 0-4.509-.033-9.018-.039-13.527 0-2.44.026-4.886.033-7.326.013-5.111.013-10.228.033-15.346 0-1.236.086-2.453.092-3.69.033-8.515.066-17.031.086-25.553.013-5.931 0-11.862-.013-17.793-.013-5.5-.04-11.001-.053-16.496a174 174 0 0 0-3.985 1.607c.013 2.46.033 4.919.047 7.379.033 7.272.019 14.552.033 21.831 0 1.065.072 2.136.066 3.18-.014 1.118-.073 2.215-.119 3.313-.033.787-.106 1.587-.093 2.327 0 .35.165.582.271.933v9.044s-.053.047-.079.073q-.051-2.041-.093-4.093a.2.2 0 0 1-.066-.013v5.931h.251c.172 4.37.113 6.896-.171 8.278v4.37c.085-.073.165-.132.264-.205.026 3.742.053 7.518.073 11.3l-.08.125a786 786 0 0 1-.145-4.06l-.086.073v8.635c0 1.481-.033 2.95-.04 4.43-.013 1.865-.02 3.736-.013 5.6 0 .212.152.384.139.357-.013 4.007-.093 7.881-.02 11.604.212 10.816.046 21.646.099 32.463.033 7.233.033 14.48.066 21.713.033 7.643.113 15.28.139 22.929.02 5.561-.033 11.134-.046 16.702 0 .687-.033 1.481.006 2.049.311 4.966-.046 10.05.06 15.048.013.8-.066 1.686-.073 2.539-.006 1.924-.231 4.166.225 5.409.205.568.132 6.076-.046 7.239-.08.536-.185 1.475-.166 2.057.179 5.93-.158 12.271.278 17.983.026.371.026.959.013 1.382-.099 2.381-.205 4.741-.324 7.604.205-.146.284-.199.43-.304-.449 3.603-.304 7.18-.179 10.783.04 1.025.02 2.143.047 3.187.046 1.746.112 3.471.165 5.21.026.853.066 1.719.066 2.579.007 2.757 0 5.52.007 8.284.006 1.97.039 3.756-.271 5.032-.099.416-.099 2.36-.106 3.623-.013 2.916 0 5.838 0 8.76l.145.08c.053-2.248.113-4.49.165-6.738l.172.166c0 7.292.014 14.579.02 21.871q1.663.682 3.337 1.336-.001-7.427-.013-14.863c-.02-15.657-.093-31.313-.139-46.97zm-3.562-97.563c.007-3.854-.119-7.834.139-11.544.205 3.987.125 7.802-.139 11.544M315.714 10.949c-.092 1.93-.191 3.934-.205 5.944a700 700 0 0 0 0 12.88c.027 2.3.185 4.535.291 6.77.007.165.126.04.192.053V22.982c-.456-2.248-.456-4.125 0-6.512v-5.918c-.099.126-.265.073-.278.397M315.721.152h-.139c.04.08.086.152.126.231 0-.072.013-.152.013-.224zM315.688 48.946c.013 1.832.046 3.657.053 5.488.006 2.989-.02 5.997.013 8.966.013.971.159 1.864.244 2.79V45.475c-.29.298-.317 1.812-.304 3.471z"/><path fill="#D9D9D9" d="M315.701 77.635c.02 3.008.185 6.01-.013 9.124-.086 1.408.059 2.578.31 2.525V75.076c-.231.06-.31.68-.297 2.559M315.741 1.382v4.344c-.073-.35-.139-.675-.225-1.078-.112 3.412.251 2.982.482 3.53V3.452c-.059-.72-.119-1.434-.171-2.155-.027.033-.053.06-.08.092zM315.846 156.334c.027.152.1-.1.152-.166v-5.917c-.191.608-.31 5.216-.152 6.083M315.998 141.96v-10.652c-.304 3.551-.092 7.101 0 10.652M259.433 56.02h.093v-8.515h-.093zM259.268 275.787s.066.007.099.013v-6.4l-.099.02zM259.374 88.088V81.43c-.192 1.85-.331 3.92 0 6.658M269.715 294.221l-.092.026v5.527s.066.047.092.073v-5.626M299.207 332.687c-.317 2.685-.099 5.561.166 8.801-.027-3.075.092-6.01-.166-8.801M298.362 148.208s.052-.013.079-.027v-6.949s-.053.034-.079.053v6.923M284.696 305.791q.081.02.152.04V287.53c-.284 5.976-.093 12.165-.152 18.261M285.053 273.129c-.35 1.885-.443 6.143-.331 12.999.509-4.265.027-8.681.331-12.999M254.854 199.078l.158.04v12.304s.06.053.093.086c.04-.449.106-.899.106-1.355.006-4.827.013-9.653 0-14.48 0-.714-.086-1.415-.119-2.142-.066-1.349-.146-2.691-.192-4.079-.04-1.25-.033-2.572-.053-3.862-.046.04-.099.08-.145.119v23.419c.053.007.106.02.152.026v-10.076M254.913 153.656c.066-14.804.139-29.607.205-44.411-.046-.013-.099-.026-.145-.04-.027 2.982-.06 5.958-.086 8.939-.027 3.042-.06 6.09-.073 9.131s0 6.09-.013 9.138c-.007 3.048-.013 6.102-.046 9.144-.027 2.77-.093 5.52.013 8.165l.139-.066zM255.231 101.02V62.243l-.1-.06c-.013 12.94-.218 25.872-.079 38.824.06 0 .119.007.185.013zM254.424 246.696c-.019 4.793-.013 9.6 0 14.4 0 .562.106 1.111.166 1.666.039-.595.119-1.183.119-1.778.006-5.667 0-11.34 0-17.006l-.067-.198c-.079.972-.218 1.924-.224 2.916zM254.702 162.615v21.197c.258-1.521.31-18.367 0-21.197M254.781 234.517v-15.438a142 142 0 0 0-.231 7.55c0 2.678.059 5.362.099 8.047.046-.053.086-.106.132-.159M255.462 188.374v13.065c.284-2.434.31-11.121 0-13.065M312.007 135.024c.013-3.207-.053-6.426-.046-9.64.026-7.028.106-14.043.112-21.071.013-9.224-.026-18.454-.046-27.677 0-.641-.02-1.276-.033-1.917q-.029-.04-.066-.08c-.079 1.488-.165 2.97-.264 4.708.185.932.277 1.984 0 3.418-.08.41-.06 1.964-.053 2.989.013 4.535.053 9.071.059 13.6q-.001 12.765-.013 25.521v1.627l-.119 11.458c.086.158.172.324.258.482.072-1.137.205-2.267.205-3.425zM312.02 26.599c-.165 1.15-.37 1.904-.376 2.737-.027 3.795 0 7.61 0 11.419 0 .145.033.284.112 1.018.231-4.966.43-9.482.264-15.174M311.901 9.408c.437-2.208.126-4.972.232-7.967-.199 2.162-.331 3.617-.469 5.032-.159 1.6-.113 5.038.112 6.215.04-1.184.026-2.79.125-3.273zM312.093 64.272c-.086-2.724-.211-5.382-.324-8.073-.046.067-.099.133-.145.199l.205 9.898c.191.667.33.112.264-2.024M311.789 52.504v-3.32l.291-2.4c-.516.51-.595 2.348-.291 5.72M241.572 331.134c-.073-.033-.152-.06-.225-.093Z"/><path fill="#D9D9D9" d="M241.347 331.041c.073.033.152.06.225.093-.053-1.184-.146-2.275-.278-3.114.02 1.057.033 2.049.053 3.021M191.264 290.161c.04-.41.014-1.164 0-1.746-.053-2.843-.257-6.016-.138-8.423.138-2.849 0-4.998-.047-7.617-.086.205-.172.397-.337.807.053-1.845.073-3.319.132-4.707.126-2.89.278-5.72.404-8.596.013-.291-.033-.707-.047-1.077-.046-1.197-.119-2.4-.119-3.59.007-3.32.047-6.639.08-9.958.066-7.491-.08-14.969-.014-22.466.027-2.605 0-5.23.014-7.842.019-5.547.152-11.154-.225-16.503.106-.562.211-1.11.344-1.791-.126-.562-.218-.979-.212-.939.053-1.567.126-2.605.119-3.623-.02-3.174-.007-6.447-.119-9.475-.211-5.825.245-11.465-.092-17.693-.252-4.635 0-10.691.052-16.106.014-1.362.113-2.691.159-3.716-.053-1.058-.119-1.97-.139-2.922-.039-2.519.086-5.065-.145-7.597-.099-1.045.026-3.16.066-4.774.013-.641.079-1.216.099-1.851.04-1.494.066-3.015.099-4.522.04 0 .08-.007.126-.013l-.39-3.835a190 190 0 0 0 .297-1.468l-.099-.278c.033-1.21.079-2.406.099-3.63.033-2.32.205-4.767-.119-6.843-.053-.317-.033-1.897-.019-1.91.383-.536.158-2.202.145-3.544-.02-1.435.059-3.095-.02-4.291-.211-3.326-.218-6.685-.152-10.15.013-.852.066-1.751.046-2.545-.138-5.064-.257-10.142-.224-15.326 0-.945.059-1.87.099-2.803a79 79 0 0 1-.086-4.708c.013-1.05.152-2.069.139-3.067-.02-2.599-.113-5.17-.126-7.763-.007-1.44.106-2.909.112-4.376 0-.596 0-1.224-.019-1.858a194 194 0 0 0-3.417 3.213c-.013.787-.059 1.448-.145 1.626-.264.55-.218 1.752-.218 2.956-.007 7.663-.013 15.332-.013 22.995 0 .602.033 1.64.079 1.726.383.72.158 2.539.132 3.868-.02.866-.106 1.666-.165 2.492q.198.376.396.76c-.026 1.832-.046 3.683-.092 5.502-.04 1.6-.066 3.286-.165 4.714-.291 4.317-.133 8.496-.007 12.807.066 2.387.132 5.203.013 7.319-.132 2.479-.251 5.402-.033 7.894l.079-4.476c.053.04.106.079.159.126-.013 2.221-.04 4.449-.04 6.671 0 4.701.007 9.402 0 14.103 0 1.891.033 3.927-.297 4.945-.066.205-.079 1.554-.092 2.394-.02 1.137-.04 2.32-.014 3.425.053 2.353.139 4.667.212 6.995l.059-.053c.027-.952.046-1.904.073-2.856.026.013.059.019.086.033v11.854c-.126.966-.218 1.706-.311 2.447.086.225.165.449.258.701.033 3.841.059 7.815.092 11.947a35 35 0 0 1-.35-.608v7.292c-.006 2.824-.066 5.673-.026 8.463.033 2.394.086 4.695-.013 7.062-.014.257.072.648.079.991.013 2.85.026 5.7.026 8.549 0 .238-.066.483-.066.721q-.002 4.026.007 8.053c0 1.375.026 2.757.02 4.126 0 .839-.053 1.666-.073 2.506-.086 4.191.172 8.674-.225 12.654-.059.569.053 1.931.06 2.936q.02 2.44 0 4.893c0 1.474-.04 2.962-.027 4.416.014 1.217.119 2.387.126 3.604.026 4.105.033 8.218.04 12.33.019 7.584.052 15.168.059 22.751q-.002 1.796-.013 3.59c1.288 1.25 2.59 2.486 3.918 3.696-.079-3.001-.211-6.003.06-9.011zM233.351 327.491v-.258zM233.127 319.014c0-1.005.105-1.996.165-2.988-.013-3.775-.033-7.557-.04-11.333v-12.866c0-.297.013-.773-.007-.859-.35-1.554-.092-2.876.08-4.424-.126-.218-.198-.357-.311-.548.079-1.323.258-2.757.225-3.881-.152-5.204.125-10.381-.02-15.571-.026-.979.079-2.155.126-3.246V157.352c-.225-.185-.265.568-.258 2.102.013 1.759-.033 3.538-.053 5.31-.04 0-.073-.007-.112-.014-.02-.529-.047-1.058-.053-1.587-.02-6.929-.046-13.858-.053-20.787 0-3.914-.02-7.874.053-11.716.053-2.704.099-5.772.462-7.649v-1.184h-.528v-3.511c.02-11.478.046-22.949.053-34.427 0-4.846-.06-9.692-.086-14.539a3350 3350 0 0 1-.06-11.861c0-.496.099-.972.126-1.521.02-.49.026-1.117 0-1.593-.033-.688-.139-1.283-.146-1.938-.046-9.944-.066-19.888-.112-29.832-.007-1.924-.02-3.841-.033-5.765-.925.443-1.837.906-2.756 1.369.033 3.782.067 7.57.093 11.359.04 5.89.079 11.782.106 17.68 0 1.368-.053 2.763-.099 4.112-.02.634-.133 1.17-.133 1.778a1090 1090 0 0 0-.046 9.23q0 16.642.04 33.283c0 1.369.112 2.724.185 4.404-.265.879-.245 3.041-.225 5.408.02 2.215-.026 4.463-.033 6.698-.013 4.225-.178 8.549.119 12.417-.04 1.223-.112 2.353-.112 3.491a2109 2109 0 0 0 0 13.309c.006 1.646.092 3.273.152 5.031-.04.668-.159 1.746-.159 2.83-.013 7.399-.026 14.804.007 22.189.02 3.359.158 6.678.224 10.03.014.701-.026 1.481-.052 2.208-.053 1.528-.166 3.035-.166 4.556 0 4.687.033 9.375.066 14.056.007 1.124.086 2.222.106 3.352.027 1.323.073 2.784.027 3.994-.225 5.468-.166 10.929-.093 16.476.033 2.261-.092 4.622-.132 6.949a94 94 0 0 0 0 3.048c.013.813.106 1.574.112 2.367q.02 9.025 0 18.05c0 1.051-.086 2.096-.125 3.147-.337-40.206-.39-80.206-.364-120.214-.423 3.227-.476 12.86-.231 14.539-.152 3.531-.357 6.691-.41 9.984-.059 3.491.08 6.975.185 10.513.165 5.745.099 11.881.093 17.851 0 1.64-.152 3.26-.232 4.9-.006.152.014.363.027.694.079-.159.152-.318.244-.516 0 3.855-.013 7.471 0 11.081.033 8.318.093 16.635.106 24.953.013 8.853-.026 17.713-.02 26.572.007 4.833.053 9.673.126 14.48.059 4.059-.165 8.324.178 12.218.047.503-.046 1.633-.079 2.46-.026.635-.106 1.269-.099 1.851.112 7.366-.297 14.48-.079 22.096.112 4.034.145 8.186.158 12.364q1.914.97 3.846 1.891c-.013-2.797-.026-5.593-.02-8.383zM176.548 238.028q.02-22.156 0-44.312c0-1.051-.099-2.102-.145-2.969.072-1.421.191-2.816.218-4.31.039-1.812.026-3.729-.013-5.541-.007-.41-.225-.582-.377-.932-.159-2.678.264-1.865.456-2.85a162 162 0 0 1-.317-1.487c.039-.086.086-.172.132-.258l-.119-6.235c-.02-1.038-.046-2.103-.04-3.134.02-2.003.066-4 .106-5.997.013-.641-.02-1.461.026-1.897.364-3.538.139-7.412.139-11.141 0-1.951-.026-3.894-.046-5.845-.02-1.574-.04-3.147-.06-4.542.285-4.86.133-9.455-.138-14.123.079.331.165.655.244.985.033-.152.06-.304.093-.449l-.337-5.481c-.033.112-.073.218-.106.33v-7.616c.482-2.433.489-2.817.205-6.414-.04-.522-.027-1.421 0-2.049.053-1.078.165-2.037.198-3.128.053-1.752.053-3.57.079-5.415a16 16 0 0 1-.343-.337c-.08-4.873-.152-9.527-.225-14.182l.139.357c.178-1.27.469-2.373.509-3.835.072-2.757.323-6.287-.258-8.178-.04-.133-.073-.635-.079-1.005l-.139-5.865a151 151 0 0 0-3.073 3.703c.046 9.507-.013 19.021-.04 28.536 0 .826-.112 1.613-.158 2.46-.132 2.525-.251 5.064-.377 7.609 0 .119.027.318.04.496l.198 3.65c.185.416.344 2.711.172 3.061-.542 1.124-.126 2.182 0 3.339-.469 3.709-.397 8.417-.39 12.754.007 3.26-.324 7.379.37 10.149-.522-.436-.443 1.831-.443 3.689v4.232c.139-.542.212-.82.285-1.091.033.158.066.324.105.482-.086 1.462-.178 2.929-.264 4.391-.033-.093-.073-.186-.106-.278-.039 6.268-.086 12.529-.125 18.79q.07.03.132.06l.119-5.409.119-.337c.079 1.263.224 2.513.231 3.802.046 7.379.092 14.764.092 22.149 0 18.242-.026 36.49-.046 54.732 0 1.19-.053 2.38-.079 3.57-.04-.053-.086-.106-.126-.159-.019-2.803-.013-5.633-.066-8.403-.026-1.342-.158-2.579-.244-3.861-.046.092-.086.185-.132.277v-8.139c-.119.827-.159 1.72-.166 2.625-.013 1.772.014 3.571-.019 5.323-.033 2.036.079 4.687-.377 5.382-.033.046-.033 3.233.013 3.325.35.688.383 2.757.416 4.622.04 2.228.02 4.522.014 6.784-.02 8.833-.047 17.673-.053 26.506 1.288 1.626 2.61 3.22 3.958 4.8.026-6.169.132-12.318.159-18.486.046-9.085.066-18.176.072-27.267zM219.93 234.451c-.033-10.222-.013-20.457-.039-30.685-.034-10.704-.113-21.402-.133-32.106-.013-7.835.047-15.67.066-23.505.014-6.704 0-13.409 0-20.113 0-13.56-.006-27.121 0-40.675 0-3.703.073-7.398.08-11.101 0-8.45-.02-16.9-.027-25.35V33.64c0-3.332 0-6.664.014-9.99a173 173 0 0 0-4.256 2.592c.007 1.957.033 3.92.013 5.864-.026 2.546-.092 4.992.291 6.605.066.285.125 1.131.125 1.726.014 2.89 0 5.779 0 8.668l-.092.053c-.04-.8-.086-1.6-.159-2.995-.059 1.223-.119 1.838-.112 2.433.026 4.384.079 8.76.106 13.15.026 5.29.026 10.586.066 15.875.006 1.23.132 2.42.191 3.465-.059.555-.178 1.183-.191 1.91-.06 3.478.086 6.943-.02 10.52-.079 2.598.059 5.52 0 8.152-.066 2.532.211 5.785-.198 7.2.092 1.977.205 3.643.244 5.395.093 4.49.146 9.019.218 13.534.007.49.007.992 0 1.475-.046 3.061-.145 6.122-.145 9.184-.013 7.577.026 15.154.026 22.731 0 .886-.112 1.758-.158 2.677-.027.49-.013 1.065-.02 1.6.449-.158.218 2.314.231 3.485q.1 12.238.139 24.496c.013 4.212.284 8.8-.324 12.318.146.648.245 1.084.383 1.712-.112.985-.211 1.818-.317 2.717.423.701.417 3.551.423 5.508.027 7.194-.039 14.4-.039 21.607 0 7.67.026 15.346.052 23.015 0 .503.1.986.152 1.475.04-.093.086-.185.126-.278l-.192 5.772c-.013-.086.04.258.073.443-.059 1.303-.119 2.479-.192 3.987.159-.265.225-.384.384-.648-.08 1.633-.086 3.299-.199 3.835-.297 1.421-.211 3.312-.165 4.985.04 1.342.258 2.486.271 3.782.04 3.762.013 7.55.013 11.332l-.138-.317c-.053 1.045-.152 2.076-.159 3.127 0 2.645.033 5.296.053 7.948l.099 12.522c1.229.76 2.465 1.514 3.714 2.242-.02-16.199-.073-32.398-.119-48.596-.04-12.497-.119-24.986-.152-37.482zM205.505 285.863c-.02-.35-.007-.78-.007-1.177 0-8.443.013-16.886.013-25.322 0-21.588.014-43.181-.013-64.768-.026-22.573-.086-45.145-.125-67.724 0-1.038.052-2.083.105-3.789.119 1.832.185 2.903.278 4.357.079-.826.152-1.196.152-1.573 0-3.656-.245-7.042-.132-10.942.079-2.976-.047-6.249-.073-9.389-.026-3.769-.04-7.544-.066-11.306-.046-5.6-.106-11.194-.165-16.794-.007-.674 0-1.798-.047-1.944-.337-1.044-.218-3.147-.218-4.826q-.038-18.636-.066-37.27a212 212 0 0 0-3.324 2.512c.014 2.566.02 5.137.033 7.703.007 1.739.067 3.49.053 5.21-.019 2.268-.138 4.516-.138 6.77 0 5.111.052 10.215.072 15.326.046 11.313.073 22.632.126 33.945.059 12.886.178 25.759.218 38.645.066 23.167.086 46.341.132 69.515.013 6.797.059 13.587.079 20.378 0 2.32-.105 4.753-.039 6.955.105 3.636-.278 7.491.112 10.936.04.363.046 1.474.013 1.679-.383 2.109-.443 4.833-.383 8.08.033 1.805-.06 3.735-.033 5.56.026 1.547.139 3.041.225 4.523.059 1.024.204 1.976.204 2.968.014 10.645.02 21.296-.019 31.935 0 .826-.02 1.672-.053 2.512a137 137 0 0 0 3.132 2.347c-.013-1.877-.033-3.762-.046-5.64-.047-6.459.35-12.906.013-19.385zM162.096 193.802c-.013-5.289.027-10.579 0-15.868-.026-6.817-.099-13.62-.119-20.437-.02-6.307.02-12.621.02-18.929 0-3.815-.04-7.623-.04-11.438 0-5.276.027-10.559.027-15.835 0-4.509-.033-9.019-.04-13.528 0-2.44.027-4.886.033-7.326l.02-10.949a174 174 0 0 0-3.496 5.733q.002.793.014 1.587l-.08.125c-.019-.502-.039-1.005-.053-1.5-.059.105-.125.204-.185.31v5.838c0 1.481-.033 2.95-.039 4.43-.013 1.865-.02 3.736-.013 5.6 0 .212.152.384.138.357-.013 4.007-.092 7.881-.019 11.604.211 10.816.046 21.646.099 32.463.033 7.233.033 14.48.066 21.713.033 7.643.112 15.28.139 22.929.013 5.561-.034 11.134-.047 16.702 0 .687-.033 1.481.007 2.049.31 4.966-.046 10.05.053 15.048.013.8-.066 1.686-.073 2.539-.007 1.924-.231 4.166.225 5.409.205.568.132 6.076-.047 7.239-.079.536-.185 1.475-.171 2.057.171 5.752-.133 11.887.244 17.468 1.15 1.95 2.326 3.881 3.549 5.785-.033-13.613-.06-27.227-.099-40.84-.027-10.11-.093-20.219-.119-30.335zm-3.33-20.642c.006-3.854-.119-7.835.139-11.544.204 3.987.125 7.802-.139 11.544"/><path fill="#D9D9D9" d="m158.297 82.884-.086.073v2.79c.059-.106.119-.205.185-.31-.033-.853-.06-1.706-.093-2.56zM232.869 29.773c.026 2.3.185 4.535.291 6.77.006.165.125.04.191.053V22.982c-.456-2.241-.456-4.119 0-6.486q-.237.108-.476.225v.178a700 700 0 0 0 0 12.88zM233.047 48.946c.013 1.832.046 3.657.053 5.488.007 2.989-.02 5.997.013 8.966.013.971.159 1.864.245 2.79V45.475c-.291.298-.317 1.812-.304 3.471zM233.06 77.635c.02 3.008.185 6.01-.013 9.124-.086 1.408.06 2.578.311 2.525V75.076c-.231.06-.311.68-.298 2.559M233.206 156.334c.026.152.099-.1.152-.166v-5.917c-.192.608-.311 5.216-.152 6.083M233.351 141.96v-10.652c-.31 3.551-.092 7.101 0 10.652M176.621 275.787s.066.007.092.013v-6.4s-.066.013-.092.02zM176.733 88.088V81.43c-.191 1.85-.33 3.92 0 6.658M186.982 294.247v.919s.066.06.093.093v-1.038zM215.721 148.208s.053-.013.079-.027v-6.949s-.053.034-.079.053v6.923M202.055 305.791q.081.02.152.04V287.53c-.284 5.976-.092 12.165-.152 18.261M202.082 286.128c.509-4.265.026-8.681.33-12.999-.35 1.885-.443 6.143-.33 12.999M172.213 199.078l.152.04v12.304s.06.053.093.086c.033-.449.105-.899.105-1.355.007-4.827.014-9.653 0-14.48 0-.714-.085-1.415-.119-2.142-.066-1.349-.145-2.691-.191-4.079-.04-1.25-.033-2.572-.053-3.862-.046.04-.099.08-.145.119v23.419c.052.007.105.02.152.026v-10.069zM172.273 153.656c.066-14.804.138-29.607.205-44.411-.047-.013-.1-.026-.146-.04-.026 2.982-.059 5.958-.086 8.939-.026 3.042-.059 6.09-.072 9.131-.014 3.042 0 6.09-.014 9.138-.006 3.048-.013 6.102-.046 9.144-.026 2.77-.092 5.52.013 8.165.047-.02.093-.046.139-.066zM172.405 101.007c.059 0 .119.007.185.013V64.729c-.04.046-.073.092-.112.138-.034 12.047-.199 24.087-.073 36.147zM172.583 62.243l-.099-.06q-.001 1.339-.013 2.678c.04-.047.073-.093.112-.14zM171.784 246.696c-.027 4.793-.02 9.6 0 14.4 0 .562.105 1.111.165 1.666.04-.595.119-1.183.119-1.778.006-5.667 0-11.34 0-17.006-.02-.066-.046-.132-.066-.198-.08.972-.218 1.924-.225 2.916zM172.061 162.615v21.197c.258-1.521.311-18.367 0-21.197M172.141 234.517v-15.438a142 142 0 0 0-.232 7.55c0 2.678.06 5.362.099 8.047.047-.053.086-.106.133-.159M172.821 188.374v13.065c.284-2.434.311-11.121 0-13.065M229.367 135.024c.013-3.207-.053-6.426-.047-9.64.027-7.028.106-14.043.113-21.071.006-9.224-.027-18.454-.047-27.677 0-.641-.02-1.276-.033-1.917-.02-.027-.039-.053-.066-.08-.079 1.488-.165 2.97-.264 4.708.185.932.277 1.984 0 3.418-.079.41-.06 1.964-.053 2.989.013 4.535.053 9.071.059 13.6q-.001 12.765-.013 25.521v1.627l-.119 11.458c.086.158.172.324.258.482.073-1.137.205-2.267.205-3.425zM229.115 41.773c.232-4.966.43-9.482.265-15.174-.165 1.15-.37 1.904-.377 2.737-.033 3.795 0 7.61 0 11.419 0 .145.033.284.112 1.018M228.99 56.398l.205 9.898c.191.667.33.112.264-2.024-.086-2.724-.211-5.382-.324-8.073-.046.067-.099.133-.145.199M229.148 49.184l.291-2.4c-.515.51-.595 2.348-.291 5.72zM152.012 159.454c.014 1.759-.033 3.538-.053 5.309-.039 0-.072-.006-.112-.013-.02-.529-.046-1.058-.053-1.587-.02-6.929-.046-13.858-.053-20.787 0-3.914-.019-7.874.053-11.716.053-2.704.099-5.772.463-7.649v-1.184h-.529v-3.511c.013-6.797.027-13.593.033-20.39a164 164 0 0 0-3.119 6.922v.615c.02 2.215-.026 4.463-.033 6.698-.013 4.225-.178 8.549.119 12.417-.04 1.223-.112 2.353-.112 3.491-.013 4.436-.013 8.879 0 13.309.006 1.646.092 3.273.152 5.031-.04.668-.159 1.746-.159 2.83-.013 7.399-.026 14.804.007 22.189.02 3.359.158 6.678.224 10.03.014.701-.026 1.481-.052 2.208-.053 1.528-.166 3.035-.166 4.556 0 4.687.033 9.375.066 14.056.007 1.124.086 2.222.106 3.352.027 1.323.073 2.784.027 3.994-.225 5.468-.166 10.929-.093 16.476.033 2.261-.092 4.622-.132 6.949a94 94 0 0 0 0 3.048c.013.813.106 1.574.112 2.367v.846a178 178 0 0 0 3.529 7.756v-89.714c-.225-.185-.264.568-.258 2.102zM148.246 139.454c-.423 3.226-.476 12.86-.232 14.539-.152 3.531-.356 6.691-.409 9.984-.06 3.491.079 6.975.185 10.512.165 5.746.099 11.882.092 17.852 0 1.64-.152 3.259-.231 4.899-.007.152.013.364.026.694.08-.158.152-.317.245-.515 0 3.854-.013 7.471 0 11.081.033 8.317.092 16.635.106 24.952v4.153c.145.357.29.72.442 1.077-.198-33.151-.244-66.189-.224-99.235zM138.677 171.66c-.013-7.835.046-15.67.066-23.505.007-3.888 0-7.769 0-11.657a173 173 0 0 0-3.674 35.499c0 12.172 1.295 24.258 3.74 35.809v-4.033c-.033-10.705-.112-21.403-.132-32.107z"/><path fill="#D9D9D9" d="M152.118 156.334c.026.152.099-.1.152-.166v-5.917c-.192.608-.311 5.216-.152 6.083M152.27 141.96v-10.652c-.304 3.551-.092 7.101 0 10.652M147.942 126.502l-.119 11.458c.086.158.172.324.257.482.073-1.137.205-2.267.205-3.425.014-3.206-.053-6.426-.046-9.639.02-6.592.093-13.177.106-19.769-.132.317-.258.641-.39.958q.002 9.155-.007 18.308v1.627z"/></g><defs><clipPath id="a"><path fill="#fff" d="M0 0h479v344H0z"/></clipPath></defs></svg>